# xmcd
#
# Track frame offsets:
#	150
#	9668
#	23202
#	33716
#	45341
#	57577
#	65077
#	75430
#	83701
#	94490
#	102320
#	110867
#	120991
#	129373
#	141280
#	152881
#	164106
#	174786
#	188556
#	196165
#	209677
#
# Disc length: 2913 seconds
#
# Revision: 1
# Processed by: cddbd v1.5.2PL0 Copyright (c) Steve Scherf et al.
# Submitted via: audiograbber 1.83.01
#
DISCID=260b5f15
DTITLE=da 8-gsong - übas jahr
DYEAR=2004
DGENRE=Folklore
TTITLE0=was wird uns denn bringen das neue jahr
TTITLE1=glabatscher wegkreuzlied
TTITLE2=wia a jahrle sich schnell draht
TTITLE3=junga tag
TTITLE4=am maria saaler berg
TTITLE5=schau diandle da hahn
TTITLE6=an alte mühl
TTITLE7=spielhahnsegn
TTITLE8=wann i die sternlan sig
TTITLE9=ziagt a wetta
TTITLE10=oft noch ban finstarwern
TTITLE11=üban anga
TTITLE12=allweil is nit da summa
TTITLE13=auf da fratn
TTITLE14=rundumadum
TTITLE15=s flattnitzliadle
TTITLE16=still ruht der see
TTITLE17=mölltag leitn
TTITLE18=a bleamle im schattn
TTITLE19=auf amal is winta worn
TTITLE20=a stern kimb durch die nacht
EXTD=
EXTT0=
EXTT1=
EXTT2=
EXTT3=
EXTT4=
EXTT5=
EXTT6=
EXTT7=
EXTT8=
EXTT9=
EXTT10=
EXTT11=
EXTT12=
EXTT13=
EXTT14=
EXTT15=
EXTT16=
EXTT17=
EXTT18=
EXTT19=
EXTT20=
PLAYORDER=
